<svg
			version="1.1"
			xmlns="http://www.w3.org/2000/svg"
			width="100" height="200"
			viewBox="-10 -2 145 205"

			part="segments"
			>

	<g
    transform="skewX(-8) translate(25, 0)"
		stroke-linejoin="bevel"
		stroke-width="3"
  >
		<!--
		<rect id="A'" x="0"   y="0"   width="100" height="15"  fill="white" />
		<rect id="B'" x="85"  y="0"   width="15"  height="100" fill="white" />
		<rect id="C'" x="85"  y="100" width="15"  height="100" fill="white" />
		<rect id="D'" x="0"   y="185" width="100" height="15"  fill="white" />
		<rect id="E'" x="0"   y="100" width="15"  height="100" fill="white" />
		<rect id="F'" x="0"   y="0"   width="15"  height="100" fill="white" />
		<rect id="G'" x="0"   y="92"  width="100" height="15"  fill="white" />
		-->


		<path id="A" d="M 3   0  	H 97 	L 82 15 	H 18  z" fill="var(--color)" stroke="hsl(from var(--color) h s calc(l * .75))" />
		<path id="B" d="M 100 3  	V 100	L 85 88 	V 18  z" fill="var(--color)" stroke="hsl(from var(--color) h s calc(l * .75))" />
		<path id="C" d="M 100 100	V 197	L 85 183	V 111 z" fill="var(--color)" stroke="hsl(from var(--color) h s calc(l * .75))" />
		<path id="D" d="M 97  200	H 3  	L 19 185	H 82  z" fill="var(--color)" stroke="hsl(from var(--color) h s calc(l * .75))" />
		<path id="E" d="M 0   197	V 100	L 15 111	V 183 z" fill="var(--color)" stroke="hsl(from var(--color) h s calc(l * .75))" />
		<path id="F" d="M 0   100	V 3  	L 15 18 	V 88  z" fill="var(--color)" stroke="hsl(from var(--color) h s calc(l * .75))" />

		<path id="G" d="
			M 6 100
			L 18 92 H 82
			L 94 100
			L 82 107
			H 18 z"

			fill="var(--color)"
			stroke="hsl(from var(--color) h s calc(l * .75))" />
	</g>

	<circle id="DP" cx="113" cy="190" r="7"
		fill="var(--color)"
		stroke="hsl(from var(--color) h s calc(l * .75))"
		stroke-linejoin="bevel"
		stroke-width="3" />

	<g id="colon"
		fill="var(--color)"
		stroke="hsl(from var(--color) h s calc(l * .75))"
		stroke-linejoin="bevel"
		stroke-width="3">

		<circle id="colonHigh" cx="128" cy="70" r="5" />
		<circle id="colonLow" cx="120" cy="130" r="5" />
	</g>
</svg>
